<?xml version="1.0" standalone="no"?>
<!DOCTYPE svg PUBLIC "-//W3C//DTD SVG 20010904//EN"
 "http://www.w3.org/TR/2001/REC-SVG-20010904/DTD/svg10.dtd">
<svg version="1.0" xmlns="http://www.w3.org/2000/svg"
 width="2560.000000pt" height="485.000000pt" viewBox="0 0 2560.000000 485.000000"
 preserveAspectRatio="xMidYMid meet">
<metadata>
Created by potrace 1.16, written by Peter Selinger 2001-2019
</metadata>
<g transform="translate(0.000000,485.000000) scale(0.100000,-0.100000)"
fill="#000000" stroke="none">
<path d="M23841 4764 c-62 -27 -235 -157 -318 -240 -71 -71 -84 -89 -98 -140
-37 -134 -27 -121 -123 -150 -88 -27 -112 -43 -112 -76 0 -16 10 -18 91 -18
89 0 91 0 86 -22 -3 -13 -42 -215 -87 -450 -76 -407 -119 -598 -140 -638 -19
-35 -42 -50 -75 -50 -27 0 -40 8 -69 41 -19 23 -41 39 -48 36 -15 -5 -82 -216
-73 -226 4 -3 34 -6 68 -6 50 0 71 6 112 29 100 59 227 201 288 321 51 102
127 369 212 740 25 110 48 208 51 217 4 15 22 18 126 20 l121 3 13 45 c22 74
28 70 -112 63 -121 -6 -126 -5 -121 13 3 10 11 44 17 74 27 127 61 225 86 248
46 41 114 20 169 -52 46 -61 58 -51 84 72 13 59 25 116 28 128 4 16 -1 23 -19
27 -40 11 -122 7 -157 -9z"/>
<path d="M17055 4639 c-131 -11 -260 -72 -310 -147 -42 -63 -65 -144 -65 -224
0 -88 11 -129 48 -188 41 -65 102 -94 284 -135 84 -20 173 -45 198 -58 61 -30
90 -76 90 -141 -1 -141 -119 -228 -287 -213 -112 11 -233 92 -233 156 0 16 -3
49 -6 75 -6 44 -8 46 -40 46 -19 0 -34 -3 -34 -7 -2 -50 -20 -244 -25 -263 -6
-24 -1 -27 77 -58 111 -43 155 -51 273 -52 112 0 216 19 282 51 66 32 158 122
189 184 46 95 48 248 5 333 -45 87 -113 123 -304 158 -170 31 -220 48 -252 85
-31 38 -39 67 -33 130 4 41 12 57 44 90 54 55 106 73 201 67 54 -3 92 -12 123
-28 72 -36 78 -45 86 -121 l7 -69 37 0 37 0 6 78 c4 42 10 103 13 134 l7 56
-69 21 c-37 12 -102 24 -144 27 -41 3 -86 9 -100 13 -14 4 -61 4 -105 0z"/>
<path d="M20268 4612 l-118 -25 0 -39 c0 -38 0 -38 39 -38 33 0 44 -7 83 -47
84 -91 217 -293 302 -460 l36 -70 0 -175 c0 -127 -4 -179 -13 -192 -9 -12 -32
-19 -75 -23 l-62 -6 0 -38 0 -39 275 0 275 0 0 40 0 40 -53 0 c-92 0 -91 0
-95 216 -2 103 -1 202 2 220 7 35 210 362 319 512 39 54 67 103 67 117 0 24
-2 25 -69 25 l-69 0 -92 -162 c-109 -190 -221 -378 -226 -378 -2 0 -36 64 -75
143 -136 271 -244 410 -314 406 -11 -1 -73 -13 -137 -27z"/>
<path d="M3680 4250 l0 -380 140 0 140 0 0 -1460 0 -1460 -140 0 -140 0 0
-380 0 -380 705 0 705 0 0 380 0 380 -135 0 -135 0 0 560 0 560 520 0 520 0 0
380 0 380 -520 0 -520 0 0 520 0 520 565 0 565 0 0 -200 0 -200 385 0 385 0 0
580 0 580 -1520 0 -1520 0 0 -380z"/>
<path d="M7390 2395 l0 -2235 105 0 105 0 0 2235 0 2235 -105 0 -105 0 0
-2235z"/>
<path d="M8200 4589 l0 -37 54 -6 c30 -4 60 -14 68 -23 10 -12 14 -105 18
-417 l5 -401 26 -55 c69 -145 217 -214 459 -214 105 0 136 3 195 23 149 51
225 124 262 253 10 39 17 144 23 386 10 357 14 415 37 437 8 8 32 15 54 15 38
0 39 1 39 38 l0 37 -195 0 -195 0 0 -37 0 -37 55 -6 c97 -13 90 17 90 -397 0
-397 -2 -411 -58 -474 -41 -47 -91 -71 -177 -85 -83 -13 -179 0 -241 31 -49
25 -95 82 -108 134 -5 22 -13 145 -16 271 -7 259 5 479 27 501 8 8 38 17 66
21 52 6 52 6 52 42 l0 36 -270 0 -270 0 0 -36z"/>
<path d="M9780 4589 l0 -37 56 -4 c93 -8 89 11 92 -381 4 -382 -4 -577 -22
-603 -9 -11 -32 -19 -70 -22 l-56 -4 0 -37 0 -36 205 0 205 0 0 38 0 37 -50 0
c-83 0 -86 6 -93 220 -4 101 -7 274 -7 384 l1 201 37 -45 c20 -24 138 -166
262 -315 123 -148 274 -326 334 -395 60 -69 110 -126 111 -127 4 -6 150 -31
155 -26 3 2 4 183 2 401 -3 432 7 679 30 693 7 5 37 9 66 9 l52 0 0 40 0 40
-200 0 -200 0 0 -40 0 -40 53 0 c97 0 92 23 95 -381 l3 -353 -27 24 c-68 64
-377 428 -563 666 l-99 126 -186 1 -186 2 0 -36z"/>
<path d="M11450 4589 c0 -36 0 -36 52 -42 28 -4 59 -13 67 -22 38 -38 37 -942
-1 -967 -7 -4 -30 -8 -50 -8 -57 0 -68 -8 -68 -49 l0 -36 265 0 265 0 0 36 c0
41 -11 49 -70 49 -65 0 -65 -1 -68 329 -4 362 8 639 29 652 8 5 40 9 72 9 l57
0 0 43 0 42 -275 0 -275 0 0 -36z"/>
<path d="M12310 4589 c0 -36 1 -36 47 -43 25 -3 54 -13 64 -22 21 -18 109
-219 310 -704 l147 -355 70 -3 69 -3 33 88 c49 131 315 763 370 880 41 88 52
103 77 109 63 14 63 14 63 55 l0 39 -195 0 -195 0 0 -39 0 -39 65 -7 c63 -7
65 -8 65 -36 0 -16 -20 -84 -44 -152 -74 -203 -233 -590 -239 -581 -19 31
-287 706 -287 723 0 27 28 41 84 41 l46 0 0 43 0 42 -275 0 -275 0 0 -36z"/>
<path d="M14143 4623 l-263 -3 0 -34 c0 -30 4 -34 31 -40 17 -3 44 -6 59 -6
55 0 55 0 58 -419 1 -212 -1 -426 -5 -476 l-8 -90 -42 -23 c-32 -18 -43 -30
-43 -48 l0 -24 308 -2 c479 -4 530 -4 540 7 5 6 12 72 16 148 l6 137 -39 0
c-38 0 -39 -1 -45 -42 -13 -84 -29 -119 -55 -130 -32 -12 -366 -16 -378 -5 -4
5 -9 106 -11 224 l-3 216 147 -5 c169 -6 169 -6 180 -94 6 -53 7 -54 40 -54
l34 0 0 185 0 185 -34 0 c-34 0 -35 -1 -41 -47 -10 -80 -4 -78 -170 -81 l-148
-3 6 190 c3 105 8 195 12 201 8 13 274 13 329 0 49 -11 56 -22 56 -92 l0 -58
39 0 38 0 6 83 c4 45 9 105 13 134 l7 51 -79 6 c-121 10 -274 12 -561 9z"/>
<path d="M15170 4588 c0 -36 1 -37 48 -43 26 -3 54 -7 62 -8 36 -5 40 -41 39
-437 0 -398 -6 -521 -27 -542 -6 -6 -36 -13 -67 -16 l-55 -4 0 -39 0 -39 265
0 265 0 0 40 0 40 -50 0 c-90 0 -86 -12 -94 366 -3 181 -2 392 2 469 l7 140
62 3 c81 4 135 -11 180 -51 95 -84 98 -225 6 -327 -45 -50 -93 -70 -167 -70
-49 0 -47 -16 15 -100 61 -85 319 -500 319 -515 0 -7 58 -10 165 -10 l165 0 0
36 c0 38 -12 49 -50 49 -12 0 -41 27 -73 68 -86 107 -313 440 -305 447 2 1 27
15 56 31 68 36 124 92 154 152 19 39 23 63 23 139 0 85 -2 94 -30 134 -41 59
-104 89 -206 100 -46 5 -86 13 -89 18 -3 5 -143 8 -312 7 l-308 -1 0 -37z"/>
<path d="M17930 4588 c0 -35 2 -38 28 -38 52 0 102 -20 107 -43 3 -12 5 -225
3 -473 -3 -500 -1 -484 -68 -484 -59 0 -70 -8 -70 -49 l0 -36 265 0 265 0 0
36 c0 41 -11 49 -68 49 -70 0 -67 -20 -70 387 -3 395 6 579 29 594 8 5 38 9
67 9 l52 0 0 43 0 42 -270 0 -270 0 0 -37z"/>
<path d="M18793 4563 c4 -38 7 -103 7 -145 l0 -78 39 0 38 0 6 65 c10 108 5
105 172 105 l145 0 0 -452 c0 -344 -3 -459 -13 -478 -10 -21 -23 -26 -75 -34
l-62 -9 0 -36 0 -36 280 0 280 0 0 38 0 37 -45 0 c-55 0 -92 16 -99 44 -3 11
-6 225 -6 474 l0 452 150 0 149 0 6 -32 c3 -18 6 -55 7 -83 3 -50 3 -50 39
-53 l36 -3 6 123 c4 68 8 132 9 143 3 20 -4 20 -536 23 l-539 2 6 -67z"/>
<path d="M90 4245 l0 -375 135 0 135 0 0 -1132 c0 -1126 5 -1345 36 -1520 83
-484 388 -836 854 -987 114 -37 163 -48 300 -67 125 -18 444 -20 575 -4 752
92 1098 509 1164 1405 7 85 11 565 11 1223 l0 1082 140 0 140 0 0 375 0 375
-705 0 -705 0 0 -375 0 -375 140 0 140 0 0 -912 c0 -878 -8 -1206 -31 -1361
-61 -407 -226 -567 -587 -567 -175 0 -298 39 -390 123 -93 86 -149 209 -183
407 -29 169 -38 509 -39 1473 l0 837 140 0 140 0 0 375 0 375 -705 0 -705 0 0
-375z"/>
<path d="M22560 4274 c-115 -32 -285 -149 -340 -233 -42 -67 -88 -215 -101
-327 -22 -182 18 -302 118 -360 42 -25 60 -29 148 -32 160 -6 271 32 418 145
132 102 213 308 205 525 -4 123 -29 185 -94 230 -76 53 -256 80 -354 52z m127
-104 c18 -10 42 -39 54 -62 19 -37 22 -59 22 -148 -2 -233 -84 -469 -183 -521
-75 -41 -173 -10 -210 66 -53 109 5 475 96 606 51 75 152 102 221 59z"/>
<path d="M13995 2990 c-220 -16 -452 -71 -613 -146 -223 -102 -454 -319 -578
-539 -86 -154 -141 -339 -164 -555 -16 -140 -8 -431 15 -560 24 -136 89 -326
147 -427 253 -444 661 -653 1278 -653 277 0 508 38 705 117 478 191 770 598
836 1166 17 150 6 476 -20 599 -45 205 -120 372 -229 508 -219 275 -523 432
-927 479 -133 15 -325 20 -450 11z m380 -257 c307 -85 531 -389 617 -838 20
-105 23 -151 23 -370 0 -214 -3 -268 -22 -371 -55 -304 -177 -550 -331 -666
-147 -113 -383 -171 -595 -148 -239 27 -416 123 -545 298 -161 217 -239 472
-261 847 -31 512 94 921 337 1105 114 86 233 135 390 160 92 14 307 5 387 -17z"/>
<path d="M23843 2958 c-1 -37 -815 -2055 -968 -2399 -77 -174 -97 -190 -257
-204 l-78 -7 0 -90 0 -90 53 7 c68 10 724 10 805 0 l62 -7 0 90 0 89 -107 7
c-134 8 -178 20 -200 52 -15 23 -15 33 -4 85 11 54 78 260 147 452 l28 77 505
-2 505 -3 93 -236 c106 -271 125 -332 111 -371 -12 -33 -22 -37 -111 -43 -40
-3 -96 -8 -124 -11 l-53 -5 0 -82 0 -82 625 0 625 0 0 82 c0 93 9 86 -125 99
-81 8 -116 23 -142 61 -24 35 -32 54 -618 1418 l-481 1120 -145 3 c-113 2
-146 0 -146 -10z m182 -1193 c109 -264 200 -488 203 -497 4 -17 -20 -18 -397
-18 -220 0 -401 3 -401 7 0 10 393 994 395 991 2 -2 92 -219 200 -483z"/>
<path d="M9630 2949 c-296 -11 -1152 -13 -1307 -4 l-123 8 0 -91 0 -90 108 -7
c129 -8 178 -19 192 -45 59 -110 65 -2121 7 -2298 -15 -45 -52 -61 -148 -61
-36 -1 -87 -4 -113 -7 l-46 -7 0 -81 0 -81 660 -1 660 0 0 77 0 78 -32 5 c-18
3 -87 10 -153 17 -127 12 -171 26 -184 62 -19 50 -31 254 -37 648 l-7 417 89
7 c109 10 482 -10 544 -28 60 -17 71 -42 84 -199 l10 -128 93 0 93 0 0 430 0
430 -93 0 -93 0 -11 -108 c-6 -59 -17 -118 -24 -130 -25 -41 -75 -47 -375 -46
-155 1 -286 4 -293 8 -21 14 -10 950 12 972 11 11 364 20 516 13 208 -10 324
-39 343 -88 5 -14 12 -90 15 -168 l6 -143 82 0 c96 0 95 -1 95 93 0 82 16 255
36 400 13 91 15 120 5 130 -25 25 -203 30 -611 16z"/>
<path d="M10388 2945 c-2 -2 -2 -44 0 -94 l3 -91 59 0 c81 0 209 -19 241 -35
15 -8 29 -26 33 -39 37 -146 34 -2172 -3 -2269 -9 -24 -170 -127 -198 -127 -9
0 -13 -19 -13 -60 l0 -61 68 7 c77 8 732 11 1372 5 422 -3 527 2 553 28 5 5
15 72 23 148 7 76 22 213 33 305 12 91 21 183 21 202 l0 36 -84 0 -83 0 -7
-42 c-19 -121 -79 -341 -99 -364 -19 -21 -39 -27 -137 -42 -93 -14 -185 -17
-477 -17 -199 0 -365 4 -370 8 -13 14 -10 2035 4 2152 16 135 22 139 211 151
l102 7 0 94 0 95 -87 -8 c-132 -11 -1070 -8 -1120 4 -23 5 -43 8 -45 7z"/>
<path d="M16665 2938 c-82 -5 -351 -7 -597 -4 l-448 5 0 -84 0 -85 44 0 c57 0
192 -18 234 -31 17 -6 37 -19 43 -30 20 -38 29 -234 35 -794 8 -746 -10 -1404
-42 -1506 -6 -21 -75 -39 -146 -39 -29 0 -77 -3 -105 -6 l-53 -7 0 -86 0 -86
635 0 635 0 0 88 c0 83 -1 87 -22 88 -142 4 -241 17 -266 36 -50 37 -53 73
-59 824 -5 624 8 1474 23 1489 11 10 335 11 400 1 88 -13 164 -53 230 -119 62
-62 119 -169 134 -251 35 -189 -22 -397 -147 -532 -92 -99 -187 -135 -380
-146 l-113 -6 -6 -32 c-5 -29 0 -38 46 -86 29 -30 121 -157 205 -284 164 -247
584 -938 620 -1019 l22 -50 381 -2 382 -1 0 87 0 88 -61 7 c-78 9 -109 36
-233 201 -151 201 -716 1050 -704 1058 1 1 55 28 118 59 199 98 324 216 405
382 121 250 86 542 -84 712 -99 100 -200 141 -393 162 -114 13 -518 12 -733
-1z"/>
<path d="M18490 2854 l0 -91 123 -5 c134 -6 170 -17 186 -57 23 -56 31 -337
31 -1119 0 -829 -9 -1138 -35 -1178 -17 -27 -42 -32 -187 -40 l-118 -7 0 -94
0 -94 48 8 c59 10 1075 10 1160 0 l62 -8 0 96 0 95 -102 0 c-189 1 -222 20
-238 140 -12 92 -12 1673 -1 1956 10 234 19 267 80 284 20 5 56 10 81 10 25 0
75 3 113 7 l67 6 0 87 0 88 -507 -5 c-280 -2 -565 -1 -635 4 l-128 8 0 -91z"/>
<path d="M19850 2865 l0 -84 33 -6 c17 -3 79 -12 136 -19 122 -17 137 -28 151
-107 26 -147 36 -1793 14 -2155 l-7 -100 -93 -58 -94 -58 0 -51 0 -52 738 1
c799 1 825 2 1054 59 355 89 683 320 878 620 182 281 263 635 231 1013 -27
314 -132 564 -313 743 -167 165 -374 261 -653 304 -180 28 -640 39 -1040 27
-198 -6 -398 -9 -445 -7 -47 3 -199 7 -337 9 l-253 4 0 -83z m1525 -145 c231
-21 373 -62 496 -141 207 -134 332 -344 396 -664 25 -125 25 -461 0 -592 -83
-443 -287 -730 -602 -849 -206 -77 -512 -102 -791 -63 l-83 12 -8 46 c-11 61
-10 2077 0 2162 l8 67 57 7 c167 22 384 28 527 15z"/>
</g>
</svg>
